<?xml version="1.0" standalone="no"?><!DOCTYPE svg PUBLIC "-//W3C//DTD SVG 1.1//EN" "http://www.w3.org/Graphics/SVG/1.1/DTD/svg11.dtd"><svg t="1755957354612" class="icon" viewBox="0 0 1536 1024" version="1.1" xmlns="http://www.w3.org/2000/svg" p-id="1328" xmlns:xlink="http://www.w3.org/1999/xlink" width="300" height="200"><path d="M0 1024h1536V0H0z" fill="#003398" p-id="1329"></path><path d="M768 143.36l10.24 30.72H819.2l-30.72 20.48 10.24 30.72-30.72-20.48-30.72 20.48 10.24-30.72-30.72-20.48h40.96l10.24-30.72z m-174.08 40.96l10.24 30.72h40.96l-30.72 20.48 10.24 30.72-30.72-10.24-30.72 20.48 10.24-30.72-30.72-30.72h40.96l10.24-30.72zM471.04 307.2l10.24 30.72h40.96l-30.72 20.48 10.24 30.72-30.72-20.48-30.72 20.48 10.24-30.72-30.72-20.48h40.96l10.24-30.72z m471.04-122.88l10.24 30.72h40.96l-30.72 20.48 10.24 30.72-30.72-10.24-30.72 20.48 10.24-40.96-30.72-20.48h40.96l10.24-30.72z m163.84 153.6l-30.72 20.48 10.24 30.72-30.72-20.48-30.72 20.48 10.24-30.72-20.48-20.48h40.96l10.24-30.72 10.24 30.72h30.72z m51.2 163.84l-30.72 20.48 10.24 30.72-30.72-20.48-30.72 20.48 10.24-30.72-30.72-20.48h40.96l10.24-30.72 10.24 30.72h40.96zM1095.68 716.8l-30.72-20.48-30.72 20.48 10.24-30.72-30.72-20.48h40.96l10.24-30.72 10.24 30.72h40.96l-30.72 20.48 10.24 30.72zM737.28 890.88l10.24-30.72-20.48-30.72h40.96l10.24-30.72 10.24 30.72H819.2l-30.72 20.48 10.24 30.72-30.72-10.24-30.72 20.48z m-174.08-51.2l10.24-30.72-20.48-20.48h40.96l10.24-30.72 10.24 30.72h40.96l-40.96 20.48 10.24 30.72-30.72-20.48-30.72 20.48z m399.36 0L942.08 819.2l-30.72 20.48 10.24-30.72-30.72-20.48h40.96l10.24-30.72 10.24 30.72h40.96l-40.96 20.48 10.24 30.72zM378.88 501.76h40.96l10.24-30.72 10.24 30.72h40.96l-30.72 20.48 10.24 30.72-30.72-10.24-30.72 20.48 10.24-40.96-30.72-20.48zM440.32 716.8l10.24-30.72-30.72-20.48h40.96l10.24-30.72 10.24 30.72h40.96l-30.72 20.48 10.24 30.72-30.72-20.48-30.72 20.48z" fill="#FFCC00" p-id="1330"></path></svg>