<?xml version="1.0" standalone="no"?><!DOCTYPE svg PUBLIC "-//W3C//DTD SVG 1.1//EN" "http://www.w3.org/Graphics/SVG/1.1/DTD/svg11.dtd"><svg t="1755957610938" class="icon" viewBox="0 0 1462 1024" version="1.1" xmlns="http://www.w3.org/2000/svg" p-id="1332" xmlns:xlink="http://www.w3.org/1999/xlink" width="285.546875" height="200"><path d="M0 0m63.029115 0l1134.524075 0q63.029115 0 63.029115 63.029115l0 756.349383q0 63.029115-63.029115 63.029116l-1134.524075 0q-63.029115 0-63.029115-63.029116l0-756.349383q0-63.029115 63.029115-63.029115Z" fill="#009EDB" p-id="1333"></path><path d="M851.901522 703.341897c-20.169317 9.706484-42.355565 12.479765-64.541814 7.563494a224.38365 224.38365 0 0 1-43.048886-14.496696l-30.506092-12.542794a149.252945 149.252945 0 0 0-81.937849-2.079961h-2.773282a137.403471 137.403471 0 0 0-81.937849 2.079961c-10.336775 3.52963-20.043259 8.382872-30.506092 12.542794-13.866405 6.239882-28.426131 11.786445-42.985857 15.253045a98.955711 98.955711 0 0 1-64.541814-7.626522l-2.773281-1.386641c-0.69332 0-0.69332 0-0.69332 0.630291a105.069535 105.069535 0 0 0 86.728062 31.262441 126.058231 126.058231 0 0 0 54.14201-20.799608l29.119452-19.412967c11.156153-6.933203 24.329238-9.769513 36.809003-6.933203 6.933203 0.630291 1.386641 4.159922 0.69332 4.853242-17.333007 8.319843-34.035722 18.719647-49.288768 30.506092-10.399804 7.626523-29.119451 25.65285-29.119451 25.65285l13.866405 11.849473 15.253046-16.702715a275.500263 275.500263 0 0 1 63.848494-49.225739 5.231417 5.231417 0 0 1 6.302911 0c23.572889 13.173085 45.065817 29.812772 63.785465 49.225739l15.316075 16.702715 13.866405-11.849473-29.18248-25.65285a277.517195 277.517195 0 0 0-49.225739-30.506092c-1.386641-0.69332-6.302912-4.222951 0.630291-4.916271a49.477855 49.477855 0 0 1 36.809004 6.933203l29.18248 19.475996a126.058231 126.058231 0 0 0 54.14201 20.799608c12.479765 1.386641 25.65285 0.69332 38.132615-2.773281a118.494737 118.494737 0 0 0 48.595448-28.426131s-0.69332-0.69332-1.386641-0.69332l-2.773281 0.630291z m68.071444-60.381892c-9.076193 6.933203-18.782676 11.786445-29.18248 15.253046a170.178611 170.178611 0 0 1-45.822167 6.933202 575.455822 575.455822 0 0 0-59.688572 4.853242c-1.386641 0-2.079961 0-1.38664-0.630291 17.333007-6.933203 31.199412-20.862637 38.825935-37.502323l19.475996-39.582285v-1.38664c-1.386641 0.630291-20.799608 17.333007-29.8758 25.65285l-32.586053 31.955761a126.688522 126.688522 0 0 1-50.675409 26.34617h-0.69332l-0.69332 0.69332 37.502323 9.013164c15.946366 4.853242 32.586053 7.689552 49.225739 9.076192a115.658427 115.658427 0 0 0 106.89738-49.982088c0-0.69332-0.630291-0.69332-1.386641-0.69332z m61.012184-93.030974a146.416635 146.416635 0 0 1-34.666013 30.569121c-11.156153 7.563494-22.942598 13.866405-35.422363 19.412967-15.946366 6.302912-30.569121 15.253046-43.742206 25.65285l-2.773281 2.079961c-0.630291 0-0.630291 0-0.630291-0.630291 0-0.756349 20.799608-21.555957 27.03949-65.298164 0.630291-15.946366 3.466601-31.199412 6.933203-46.452458v-1.38664a202.386489 202.386489 0 0 0-33.342402 59.688572l-12.479765 35.359334c-4.853242 15.946366-13.866405 30.569121-25.715879 42.355565l-1.386641 1.386641v0.630291c1.386641 0 2.773281-0.630291 4.222951-0.630291l40.212576-8.319844c22.249278-3.466601 43.048886-12.479765 61.138241-25.715879 18.656618-13.173085 33.279373-31.199412 43.679177-51.368729 2.773281-5.546562 4.853242-11.093124 6.933203-16.639686 1.386641-1.386641 0.69332-1.386641 0-0.630291z m26.34617-104.124099a123.537066 123.537066 0 0 1-31.892732 49.982089c-16.639686 16.009395-31.955761 34.035722-45.822167 52.062049 0 0.69332-1.386641 0-0.630291-0.630291 5.483533-18.782676 6.933203-38.888964 4.096892-59.058281-2.773281-16.639686-9.706484-34.666013-11.786444-54.835331l-0.630291-0.630291c0 0.630291-0.756349 1.323611-0.75635 2.016932a197.281131 197.281131 0 0 0-8.319843 40.275605c-0.69332 16.639686 2.079961 38.195644 0.630291 54.83533-1.323611 19.412968-2.710252 39.582284-11.723415 56.915291v1.386641l41.599216-25.715879c17.396036-11.093124 31.955761-24.95953 43.742206-41.599217 15.253046-21.555957 22.942598-46.515487 22.942598-72.861657v-2.83631c-0.69332 0-1.386641 0.69332-1.386641 0.69332z" fill="#FFFFFF" p-id="1334"></path><path d="M962.895794 456.961086c0.630291 0 0.630291 0 0 0 0-5.609591 0-11.156153-0.69332-16.702716-1.386641-19.412968-13.236114-35.359334-23.572889-52.062049a258.167256 258.167256 0 0 1-18.782677-33.279373s-0.630291-0.69332-1.38664-0.69332c0 1.386641 0 7.626523 0.69332 11.093124 3.466601 27.732811 10.399804 55.528651 20.799608 81.93785 6.302912 16.639686 8.382872 33.972693 6.933203 51.3057 0 1.386641 0 1.386641 0.756349 2.079961 6.239882-9.013163 18.719647-21.492928 26.34617-31.199413 7.626523-9.706484 49.288768-56.915291 29.182481-122.150425-0.69332-2.773281-2.14299-5.546562-3.529631-8.319843l-0.630291 0.630291c0 47.271836-22.942598 67.378124-31.955761 99.270857-2.079961 7.626523-3.466601 13.236114-4.159922 18.089356z m0.630291-97.190896l-4.096892-11.093124-2.773281-6.302912a96.434546 96.434546 0 0 0-28.489161-31.892732 135.260481 135.260481 0 0 1-24.959529-27.732811h-2.079961c0.630291 2.079961 6.933203 22.879569 11.093124 32.586053 6.933203 13.236114 15.253046 26.409199 24.95953 37.502323l2.14299 2.773281c11.786445 15.946366 20.799608 33.279373 27.03949 52.06205 0 0.630291 0.69332 0.630291 0.693321 0.630291l11.786444-36.052654c4.159922-12.479765 7.626523-25.65285 10.399804-38.825935 4.159922-31.262441-5.546562-70.844726-23.572889-93.030974 0 0-0.69332 0.69332-0.69332 1.38664l0.69332 2.773281 1.386641 4.159922c3.466601 16.639686 4.159922 34.666013 0.69332 51.368729-2.773281 13.236114-3.466601 27.10252-3.466602 40.968925 0 2.079961 1.386641 19.412968 1.386641 20.106287 0 0.69332-0.69332 0-1.386641 0m-56.22197-175.599115a53.637777 53.637777 0 0 1 13.236114 19.412968c4.790213 11.849474 6.176853 29.18248 9.643454 42.355565l6.302912 22.879569c0 0.69332-0.69332 1.44967-1.386641 0.69332a136.331976 136.331976 0 0 0-37.502323-31.199412 90.44678 90.44678 0 0 1-24.329239-21.492928l-3.466601-4.853242s-0.630291-0.69332-1.38664 0v2.079961c3.466601 15.253046 10.462833 29.812772 21.555957 41.599216 9.013163 8.319843 18.719647 16.009395 27.732811 23.635918 11.786445 9.706484 22.942598 21.492928 33.342402 33.279373 0 0 0.630291 0.69332 0.630291 0v-11.093124l0.756349-33.342402V258.419373c0-11.093124-2.079961-22.879569-6.302911-33.279373a77.399754 77.399754 0 0 0-36.052654-39.582285c-0.69332-0.630291-2.079961-0.630291-3.466602-1.38664 0 0 0 0.69332 0.693321 1.38664z m-71.475017-32.586052c9.706484 9.013163 18.026327 19.412968 25.65285 30.506092 6.933203 11.093124 14.622755 20.799608 24.329238 29.8758 6.239882 6.239882 24.95953 20.799608 29.812772 24.95953-0.630291-5.546562-9.706484-45.128847-34.035722-64.541814a123.852211 123.852211 0 0 0-47.902128-23.635918v1.449669l2.14299 1.386641z m-388.700554 540.66375c16.009395-1.44967 32.649082-4.222951 47.902128-9.076192l37.502323-9.013164h0.630291s0-0.630291-0.630291-0.630291H532.596024a134.252016 134.252016 0 0 1-51.368729-26.472228l-32.649082-31.199412-29.812771-25.65285v1.38664c2.773281 4.159922 13.236114 27.10252 19.412967 39.582285 7.626523 17.333007 21.555957 30.506092 38.888964 37.439294 0.630291 0.69332 0 0.69332-1.38664 0.693321a561.778504 561.778504 0 0 0-59.688572-4.853242 170.178611 170.178611 0 0 1-45.822167-6.933203 97.695129 97.695129 0 0 1-29.119451-15.253046h-1.386641c13.866405 19.412968 33.279373 34.666013 55.465622 42.985857 17.396036 5.546562 34.729043 7.626523 52.755369 6.933202z m-15.946366-40.968924c1.386641 0 2.079961 0.630291 4.159922 0.630291v-0.630291l-1.386641-1.386641a110.363981 110.363981 0 0 1-25.65285-42.355565L396.579193 573.564949a202.386489 202.386489 0 0 0-33.342402-59.688572v1.38664c4.159922 15.253046 6.302912 30.506092 7.626523 46.452458 6.302912 43.048886 27.10252 63.848494 27.10252 64.541814 0 0.69332 0 1.386641-0.69332 0.693321l-2.773282-2.079961a172.447659 172.447659 0 0 0-43.742206-25.65285 218.521943 218.521943 0 0 1-35.422362-19.412968 146.353606 146.353606 0 0 1-34.666014-30.569121h-0.69332c2.079961 5.546562 4.159922 11.093124 6.933203 16.639687 10.399804 20.169317 25.65285 38.195644 44.372497 51.368729 18.089356 13.866405 38.888964 22.942598 61.138242 25.715879 13.173085 3.466601 26.34617 6.933203 39.519255 9.706484zM320.187906 562.408796l41.662245 25.715879s0.69332-0.69332 0.69332-1.386641c-9.013163-18.089356-10.399804-37.502324-11.786445-56.915291-1.386641-17.396036 1.386641-38.195644 0.630292-54.83533a204.088275 204.088275 0 0 0-8.256814-40.968925c0-0.630291-0.69332-1.386641-0.693321-2.079961l-0.69332 0.69332c-1.386641 20.169317-9.076193 38.195644-11.849474 54.83533-2.773281 19.412968-1.386641 39.582284 4.222951 58.995252 0.630291 0.69332-0.69332 1.386641-0.69332 0.693321a409.752278 409.752278 0 0 0-45.822167-52.06205 121.14196 121.14196 0 0 1-31.955761-49.288768s-0.630291-0.630291-1.386641-0.630291c-0.630291 0 0 1.323611 0 2.710252 0 25.715879 7.626523 51.368729 22.942598 72.924686 11.093124 15.946366 25.65285 30.506092 42.985857 41.599217z m-7.563494-61.075213c0.630291-0.630291 0.630291-0.630291 0.630291-2.079961a108.031904 108.031904 0 0 1 7.626523-51.368729c9.706484-26.34617 16.702716-53.385661 20.799608-81.874821 0-3.466601 0.756349-9.706484 0.756349-11.093124-0.69332 0-0.69332 0-0.69332 0.630291a258.041198 258.041198 0 0 1-18.782676 33.405431c-11.093124 15.253046-22.186249 31.892732-23.572889 51.3057a66.873891 66.873891 0 0 0 0 16.702716s0 0.630291-0.693321 0.630291v-0.630291l-4.853242-16.702716c-9.706484-31.892732-31.955761-52.062049-31.955761-99.207827l-0.630291-0.693321c-1.44967 2.773281-2.14299 5.546562-3.529631 8.319844-20.169317 65.235134 20.799608 112.443942 29.182481 122.150425 8.319843 9.706484 19.412968 21.492928 25.65285 30.506092z m-29.182481-129.776949l11.786445 36.115684s0.630291 0 0.630291-0.693321c6.302912-18.782676 16.009395-36.115683 27.10252-52.062049l2.07996-2.773281c9.769513-11.786445 18.089356-24.329238 25.022559-37.502324 4.159922-9.706484 10.399804-30.506092 11.093124-32.586052h-2.07996c-6.933203 10.399804-15.253046 19.412968-24.95953 27.732811a94.291556 94.291556 0 0 0-29.18248 32.649081c-0.69332 2.079961-2.079961 4.159922-2.773281 6.239883l-4.159922 11.786444s-0.69332 1.386641-0.69332 0 1.386641-17.333007 1.38664-20.169317c0-13.866405-1.386641-27.732811-4.159921-40.905895a127.823046 127.823046 0 0 1 0.630291-51.368729c0-1.386641 0.756349-2.773281 1.449669-4.159922 0-0.69332 0.630291-2.079961 0.630292-2.773281 0-0.69332 0-0.69332-0.630292-1.386641-18.026327 22.186249-28.48916 62.461853-24.329238 93.030974 3.52963 13.173085 6.933203 26.34617 11.156153 38.825935z m24.95953-101.350817l0.69332 33.342402v10.399804h0.693321c9.706484-12.479765 20.799608-23.572889 32.649081-34.035722l27.732811-23.572889c11.093124-11.786445 18.026327-26.34617 21.492928-41.599216v-2.079961h-0.630291l-3.52963 4.853242c-6.239882 8.319843-14.496697 15.946366-23.572889 21.492928-16.639686 10.399804-27.732811 18.026327-37.502324 31.199412-0.630291 0.69332-1.386641 0.69332-0.630291-0.630291l6.176853-22.942598c3.52963-13.236114 4.916271-30.506092 9.769513-42.355565a60.318863 60.318863 0 0 1 13.173085-19.412968v-1.38664c-1.386641 0-2.079961 0.69332-3.466601 1.38664a79.605773 79.605773 0 0 0-36.809004 40.275605c-4.159922 10.399804-6.933203 21.492928-6.239882 33.279373v11.786444z m36.809003-32.586052l30.506092-24.95953c9.013163-9.076193 17.333007-18.782676 24.329239-29.875801a153.791041 153.791041 0 0 1 25.65285-30.506092l2.07996-2.142989V148.748712c-17.333007 4.222951-34.035722 11.849474-47.902127 23.635918-25.65285 20.169317-34.035722 59.688572-34.666014 65.235135z m278.966864 215.181399c2.079961-2.83631-2.773281-4.916271-4.159921 0-1.386641 4.853242 2.079961 3.466601 4.159921 0z m52.75537-122.213454c-2.079961-0.630291-9.706484 8.382872-8.319843 9.769512a23.068656 23.068656 0 0 0 8.319843-9.769512z m1.38664-1.386641c1.386641 0.69332 6.302912-2.079961 5.546563-2.773281-0.630291-0.630291-6.933203-3.466601-6.933203-2.079961 0 2.773281 0.69332 4.159922 1.38664 4.853242zM772.106662 415.36187c2.773281-0.69332 2.079961-4.853242 0-4.853242s-4.853242 3.466601-4.159922 3.466601c0.630291 0 2.773281 2.079961 4.159922 1.386641z m-34.035722-92.337654c-2.079961 0-2.773281 2.079961-0.630291 3.466601 2.016932 0.69332 3.403572 0 4.790212-0.630291a4.664155 4.664155 0 0 0 2.773281-4.222951c0-2.079961-2.773281-4.853242-1.38664-6.239882 1.386641-1.386641 3.466601 0.69332 4.853242 0a3.781747 3.781747 0 0 0 2.079961-3.466602c0-1.386641-0.630291-5.546562-3.466602-5.546562-2.773281 0-5.546562 5.546562-5.546562 5.546562a5.861708 5.861708 0 0 0 0 4.853242c0.69332 2.773281 0 6.302912-3.466601 6.302912zM783.830077 323.717536c0 1.386641 3.466601 10.399804 4.159922 12.479765 0.69332 2.079961 1.386641 9.706484 2.773281 9.013163 1.386641-0.69332 1.386641-4.853242 0.69332-6.933202a89.690431 89.690431 0 0 0-3.466601-14.559726c-0.630291-2.773281-5.546562-13.236114-6.933203-12.542794-1.386641 0.69332 2.079961 6.933203 2.773281 9.769513 0.69332 2.773281-0.69332 1.386641 0 2.773281z m-24.266209-117.990504c2.079961 0.630291 2.079961-3.466601-1.38664-6.302911-3.466601-2.710252-9.013163-1.323611-7.626523 0 2.773281 2.14299 5.546562 4.916271 9.013163 6.302911z m-104.124098-29.8758c-4.853242-2.773281-0.69332-6.933203-4.159922-9.706484-4.159922-1.386641-8.319843-0.69332-11.093124 2.079961-3.466601 4.159922 4.159922 2.773281 6.239882 4.159921 2.079961 1.386641 9.013163 6.302912 9.706484 5.546562 0.69332-0.630291 0-2.079961-0.69332-2.07996z m27.73281-13.866406c-6.239882-2.773281-29.119451-2.773281-28.426131 3.466602 0.630291 6.302912 13.236114 0 16.639687 0 3.466601 0 17.396036-0.69332 11.786444-3.466602zM620.017407 429.858566c-1.386641-0.630291-3.466601 0.69332-4.159922-0.630291-0.630291-1.44967-2.079961-0.756349-2.079961 0 0 0.630291-0.630291 2.016932 0.693321 3.403572a4.222951 4.222951 0 0 0 5.546562 0 2.14299 2.14299 0 0 0 0-2.773281z m-13.173085-46.452458c2.079961 0 2.079961-1.386641 2.773281-1.38664 0.69332 0 0 1.386641 2.079961 1.38664s4.159922-4.853242-2.079961-4.853242c-4.853242 0-4.159922 4.853242-2.773281 4.853242z m8.319843 5.546562c-3.466601-0.69332-2.773281 1.386641-5.546562 1.386641-4.159922 0.630291-0.630291-2.773281-2.079961-4.159922-0.630291-0.69332-2.773281 2.773281-3.466601 4.853242 0 1.386641 0 4.159922 1.38664 4.853242l13.236114 1.386641c2.710252 0 0-7.626523-3.52963-8.319844z m-42.985857 45.065818c1.386641 0 2.079961-4.159922 1.386641-6.239883-0.69332-2.079961-4.853242-0.630291-4.853242 0.693321 0 1.386641 2.773281 5.546562 3.466601 5.546562z m-55.52865 0c0-1.386641 0-6.933203-1.386641-8.319843-1.386641-1.386641-1.386641 0.69332-2.079961 0.69332-0.69332 0-0.69332-2.773281-1.38664-2.773281s0 4.159922 1.38664 6.933202 3.466601 6.933203 3.466602 3.466602z m-1.386641-12.479765a39.330168 39.330168 0 0 0 2.079961-12.479765c0-3.466601-2.079961-6.302912-2.773281-6.302911-0.69332 0 0 2.14299 0.630291 5.609591 0 3.466601-1.323611 6.933203-2.016932 10.399804 0 0.69332 1.386641 4.159922 2.079961 2.773281z" fill="#FFFFFF" p-id="1335"></path><path d="M444.481321 577.03155a263.461702 263.461702 0 0 0 373.384479 0 263.461702 263.461702 0 0 0 0-373.384479 263.461702 263.461702 0 0 0-373.384479 0 263.461702 263.461702 0 0 0 0 373.384479zM378.552866 395.822844h40.212576c0.69332 20.799608 4.159922 40.968925 10.462833 60.381892-2.079961-0.69332-4.159922-1.386641-6.302912-2.773281-2.773281-1.386641-4.853242 0.630291-5.546562 0.630291-2.773281 0-6.239882-2.016932-6.239882 0 0 2.14299 2.773281 0.756349 2.773281 2.14299 0 1.386641-6.933203 1.386641-7.563494-1.38664-0.756349-2.773281-2.14299-5.546562-2.83631-2.079961-0.630291 3.466601-3.466601 2.773281-4.853242 3.466601a5.294446 5.294446 0 0 0-1.38664 3.466602c0 1.386641-3.466601 0.630291-3.466602 2.773281 0 2.079961 2.079961 2.773281 2.773281 4.853242 0.69332 2.079961 2.773281 3.466601 1.386641 4.159921-1.386641 0.69332-0.69332-0.69332-2.079961 0-1.386641 0.69332 6.302912 21.492928 7.626523 20.799608 1.386641-0.630291-2.079961-6.933203-2.079961-9.706484s0.69332-3.466601 2.773281-4.853241 7.626523 8.319843 9.706484 6.933202c2.079961-1.386641-0.630291-2.773281 1.38664-3.466601 2.079961-0.630291 8.319843 9.013163 10.462834 6.302911 1.386641-2.14299 2.773281 1.323611 2.773281 2.016932 2.079961 3.466601 5.546562 3.466601 7.563494 7.626523 2.14299 4.159922 6.933203 11.849474 10.462833 11.849474 3.466601 0 1.386641-3.466601 2.773281-3.466602s2.773281 4.853242 4.853242 7.563494a10.084658 10.084658 0 0 0 6.302911 4.222951c4.790213 6.239882 10.336775 12.479765 15.883337 18.719647l-28.426131 28.426131a243.796618 243.796618 0 0 1-69.395056-168.602883z m229.741125-57.608611l-2.83631 1.38664a38.888964 38.888964 0 0 0-10.399804 6.933203l-28.426131-28.48916a95.173964 95.173964 0 0 1 58.995252-24.26621v40.275605a55.654709 55.654709 0 0 0-14.559725 3.466601 25.841937 25.841937 0 0 1 4.159921-5.546562s-4.853242 2.773281-6.933203 6.239883z m-21.555957 65.928454v1.386641c0-1.386641-0.630291-2.079961-1.386641-3.466602-0.630291-0.69332-1.386641-1.386641-2.07996-1.38664H579.86786l-1.38664 0.630291h-9.706484c-1.386641 0-2.079961 0-2.079961-0.630291-0.69332-2.773281 3.466601-0.69332 6.239883-9.013164 0.69332-0.69332 0.69332-2.079961 1.38664-2.773281l0.693321-1.38664 0.69332-0.693321 0.69332-0.69332c1.386641-1.386641 2.773281-1.386641 4.159922-1.38664h1.38664l1.386641 1.38664 2.079961 4.159922c0.69332 0.630291 1.386641 0.630291 1.38664 1.38664 1.386641 0.630291 2.079961 1.386641 2.773281 2.079961l0.69332 0.630291v0.75635c0.69332 0.630291 0.69332 0.630291 1.386641 0.630291h2.773281c1.386641-0.630291 1.386641 0 2.079961 0v0.756349c0 0.630291 0 0.630291-0.630291 1.386641 0 0.630291-0.756349 0.630291-0.75635 1.38664-0.630291 0.630291-1.386641 1.386641-2.07996 1.386641-1.386641 0-2.773281-0.69332-3.466602-0.693321-0.630291 0-1.386641 0-1.38664 0.630292v3.52963M511.796416 470.827491a25.400733 25.400733 0 0 1-2.773281-12.479765 23.383802 23.383802 0 0 0-3.466601-11.786444 34.855101 34.855101 0 0 1-1.386641-8.382873c0-4.853242-4.159922-3.466601-4.159922-4.853242s3.466601 0 3.466602-1.38664-4.159922-6.933203-7.626523-8.319843c-3.466601-1.386641-2.079961-3.466601-2.079961-5.546562 0-2.079961 0-4.159922-1.386641-5.546563-0.69332-2.773281 0-7.626523 3.466602-7.626523 1.386641 0 3.466601 1.386641 5.546562 0 2.079961-1.386641 0.630291-5.546562 0.630291-9.013163h19.539026c0 2.773281 0.630291 6.239882 0.630291 9.013163-1.386641 0.630291-2.079961 2.079961-1.386641 2.773282 0.69332 0.630291 1.386641 1.386641 2.079961 0.630291 3.466601 20.169317 12.479765 38.951993 26.4092 54.205039l-28.489161 28.426131c-2.079961-2.079961-4.159922-4.853242-6.239882-7.563494v-2.14299c0-4.853242-3.466601-7.626523-4.853242-11.786445m-25.022559-47.208807a161.03939 161.03939 0 0 1-3.466601-26.34617H497.930011c-1.386641 2.079961-4.853242 4.159922-5.546563 6.239882-0.69332 2.079961-4.853242 9.013163-2.07996 11.786445 6.239882 6.933203-1.386641 9.706484-5.609592 8.319843z m3.529631 102.737458l-3.529631 3.466601-4.853241-4.853241c2.773281-1.386641 5.546562-0.69332 8.382872 1.38664z m42.985856-178.372396c-0.630291 0-0.630291 0.630291-1.38664 0.630291-2.079961 2.14299-7.563494 1.44967-6.933203 3.52963 0.69332 2.079961 15.253046-4.853242 15.253046-3.466601s-6.239882 3.466601-10.399804 5.546562c-4.159922 2.079961-5.546562 5.546562-12.479765 5.546562-3.466601 0-4.853242 2.773281-6.302911 4.853242A51.809933 51.809933 0 0 0 504.232922 371.556634a27.228578 27.228578 0 0 1-2.773281 12.542794h-20.169317a150.009294 150.009294 0 0 1 39.582285-95.804255l28.48916 28.426131a189.717637 189.717637 0 0 0-18.089356 29.875801z m26.4092-20.799608l24.959529 24.959529H579.86786c-2.773281 0-2.773281-2.079961-4.853241-2.07996-4.159922 0.630291-4.853242 2.079961-5.546563 1.38664a38.888964 38.888964 0 0 0-10.399804-6.933202 19.034793 19.034793 0 0 0-13.866405 0.630291c-0.756349 0-0.756349 0.756349-1.44967 0.756349 4.916271-6.302912 9.769513-12.479765 13.866406-18.719647z m-34.666014 50.612379c0 2.773281-0.756349 5.546562-0.756349 8.382873h-14.559726c-0.69332-2.14299 0-4.222951 1.386641-6.302912 1.386641-2.773281 4.853242-4.159922 8.319843-3.466601a21.429899 21.429899 0 0 1 5.546562 1.38664z m12.416736 32.649082l1.386641 2.079961c1.386641 1.386641 2.773281 2.773281 4.159921 2.079961 1.386641-0.69332 4.853242 0 5.609591 0 2.079961 0.69332 3.466601 2.079961 4.853242 3.466601 1.386641 2.079961 4.159922 0.69332 6.239883 2.079961 2.079961 1.386641 4.159922 2.773281 1.38664 4.159921-2.773281 1.386641 2.773281 4.159922 3.466602 4.159922 0.630291 0 1.386641-1.386641 1.38664-3.466601 0-0.630291 1.386641-3.466601 3.466602-2.773281 2.079961 0.69332 8.319843 8.319843 10.399804 5.546562 2.079961-2.773281 0.69332-6.239882 1.38664-7.563494 0-0.756349 0.69332-1.44967 1.386641-1.44967 2.079961 3.466601 3.466601 6.302912 6.302911 9.013164l-28.48916 28.48916a87.295325 87.295325 0 0 1-22.942598-45.822167z m22.249278-99.270856l-27.732811-28.426131a150.009294 150.009294 0 0 1 95.741226-39.582285v40.275605c-25.022559 0.630291-48.595448 10.399804-68.071444 27.732811z m-36.115683-36.745975l-28.426131-28.48916a201.567111 201.567111 0 0 1 132.550229-54.83533v40.275605a159.904865 159.904865 0 0 0-104.124098 43.048885z m-8.319844 7.563494a161.354535 161.354535 0 0 0-43.048885 104.187128h-40.212576c1.386641-49.288768 20.799608-96.497575 54.835331-132.613259l28.42613 28.48916z m-43.048885 115.280252c0 7.563494 0.69332 14.559726 2.079961 22.186249-0.630291 0-0.630291-2.079961-2.773282-1.386641-2.079961 0.69332-9.706484 13.866405-13.173085 19.412968-2.773281 4.853242 1.386641 15.316075-2.773281 18.782676a39.330168 39.330168 0 0 1-12.479764 2.079961h-0.693321a197.218102 197.218102 0 0 1-11.093124-59.688572l40.968925-1.386641z m154.799507 247.074132a250.225588 250.225588 0 0 1-168.665913-70.088376l28.426131-28.48916a212.660235 212.660235 0 0 0 140.239782 58.301931v40.275605z m0-51.368729a201.567111 201.567111 0 0 1-132.55023-54.83533l4.853242-4.853242a15.126988 15.126988 0 0 0 3.466602 2.079961c2.773281 1.386641 6.239882 2.079961 9.706483 1.38664 2.773281-0.69332 8.319843-5.546562 11.786445-5.546562 3.466601 0 9.013163 1.386641 12.479765-0.69332 3.466601-2.079961-2.079961-9.013163-4.159922-12.479765-0.630291-0.69332-0.630291-1.386641-1.38664-2.079961 27.10252 22.879569 61.768533 36.052654 97.190895 36.745974l-1.38664 40.275605z m0-52.062049a150.009294 150.009294 0 0 1-95.804255-39.582285l28.48916-28.426131c13.173085 11.786445 29.119451 20.799608 47.145778 24.95953-6.239882 2.773281-9.013163 6.933203-8.319843 10.462833 0.69332 3.466601-4.159922 5.546562-4.159922 9.706484s5.546562 6.933203 6.302912 11.093124c0.630291 2.079961 5.483533 5.546562 9.706483 8.319843a42.796769 42.796769 0 0 0 15.946367 1.386641l0.630291 2.079961z m-1.386641-55.465622c-2.079961-1.44967-3.466601 1.323611-6.302911 2.710252a100.090235 100.090235 0 0 1-51.3057-23.572889l28.426131-28.48916c9.013163 6.933203 19.475997 11.849474 30.569121 12.542794 0 1.386641 1.386641 2.773281 1.38664 5.546562s-2.079961 4.159922-1.38664 5.546562c0.630291 1.386641 6.933203 0 7.563494-2.079961 0.756349-2.079961-2.016932-3.466601-2.710252-5.546562-0.69332-1.386641-0.69332-2.079961-1.386641-3.466601h2.079961c2.079961 0 4.159922 0 6.239882-0.69332a1.512699 1.512699 0 0 0 1.386641-1.386641c0-0.69332 0.69332-1.386641 0.69332-2.14299 0-0.630291 0.69332-0.630291 0.69332-1.38664l0.693321 0.69332c0.69332 1.44967 2.079961 5.609591 3.466601 4.916271 1.386641-0.69332 2.079961-6.933203 1.386641-8.382872a5.231417 5.231417 0 0 1 0-6.239883c0-0.630291 0.69332-4.853242 2.07996-4.159921 1.386641 0.69332 0 4.159922 0 5.546562 0 2.079961 1.386641 4.853242 3.466602 3.466601 1.386641-0.630291 2.773281-2.773281 4.159921-2.079961 1.386641 0.69332-3.466601 2.079961-4.159921 3.466602-0.630291 1.386641 2.079961 2.079961 1.38664 2.773281-0.630291 0.69332-1.386641 0-2.07996 0.69332-0.630291 0.69332 1.386641 4.916271 0 5.609591-1.386641 0.630291-6.239882 2.079961-7.563494 2.773281-1.44967 0.630291-2.83631-0.69332-2.14299-1.38664 0.69332-0.69332 0-3.466601-1.386641-3.466602s-1.386641 0.630291-1.38664 2.079961c0 1.386641 1.386641 3.466601 1.38664 4.159922 0 0.630291-2.079961 1.386641-3.466601 2.079961a21.114754 21.114754 0 0 1-5.546562 5.546562c-2.079961 1.386641-6.302912 1.386641-6.302912 2.773281s2.14299 1.386641 2.83631 2.079961c1.386641 2.079961 2.079961 4.853242-0.69332 6.239882-2.773281 1.386641-6.302912-2.079961-7.626523-1.386641-1.386641 0.630291-2.079961 4.159922-2.773281 8.319844-0.69332 4.159922 7.563494 5.546562 11.786445 3.466601 2.773281-1.386641 2.079961-5.546562 4.853242-6.933203 2.773281-1.386641 2.079961-4.159922 4.853241-3.466601 2.773281 0.69332 2.079961-2.079961 4.853242-2.079961s2.773281 2.079961 6.302912 2.773281c5.483533 1.386641 5.483533 5.546562 6.176853 3.466602 0.69332-2.079961 1.386641-3.466601-2.773281-4.853242s-6.239882-6.302912-2.773281-4.853242c4.159922 2.079961 7.626523 2.079961 8.319843 4.159921 0.69332 2.079961 4.853242 1.386641 5.546562 3.466602 0.69332 3.466601 3.52963 0 1.386641-2.079961-2.079961-2.079961-1.386641-2.773281 0-4.159922 1.386641-1.386641 2.14299 0.630291 4.159921-2.07996 2.14299-2.773281-0.630291-2.079961-1.323611-3.466602-0.69332-1.386641 0-9.013163 2.710252-7.626523 2.83631 1.386641 5.609591-0.69332 4.222951-1.38664-1.386641-0.69332 0.630291-4.853242 1.38664-4.853242 0.630291 0 0 2.773281 0.630291 3.466601 0.756349 0.630291 7.689552-2.079961 8.382873 1.386641 0.630291 3.466601-4.853242 5.546562-6.302912 5.546562-2.710252 0-4.790213 2.773281-6.933202 5.546562-2.079961 2.773281-4.159922 3.466601-2.710252 6.239882 1.323611 2.773281 4.159922 2.079961 6.933202 0.630292 2.773281-1.323611 4.853242-3.403572 6.239883-4.096893 2.773281-1.386641 4.853242 6.933203 3.466601 8.319843-1.386641 1.386641-4.159922 2.079961-5.546562 3.466602-4.159922 2.079961-8.319843 4.159922-13.236114 4.159921-2.773281 0.69332-2.773281 1.386641-3.466602 4.159922-0.630291 2.773281-13.173085 0.69332-15.946366 0.69332-2.773281 0 2.079961-6.239882-2.079961-5.546562l-12.479764 2.079961c-0.69332 0-4.853242 3.466601-8.319844 0.69332z m36.745975 64.478785c3.466601 1.386641 6.933203 4.159922 9.013163 6.933203 2.14299 3.466601 2.83631 4.853242 1.44967 8.319843-3.52963 6.302912-2.14299 10.462833 4.853242 12.542794 4.159922 1.386641 5.546562 5.546562 8.319843 8.319843-15.316075 4.159922-31.262441 6.239882-47.208808 6.933203v-40.275605c7.626523-0.630291 15.946366-1.386641 23.57289-2.773281z m-23.57289-8.319843v-4.853242c9.013163-1.386641 6.933203 4.159922 13.236115 2.079961a5.420504 5.420504 0 0 1 5.483533 1.38664c-6.239882 0-12.479765 0.69332-18.719648 1.386641z m0 103.367749v-40.905896c20.799608-0.630291 41.599216-4.159922 61.768533-11.093124 0.69332 0.69332 1.386641 0.69332 2.079961 0.69332a14.496697 14.496697 0 0 0 7.626523-2.773281c6.933203-2.773281 13.236114-6.302912 18.719647-10.399804 18.089356-9.013163 35.422363-21.555957 49.982089-35.422363l28.48916 28.48916a251.675257 251.675257 0 0 1-168.665913 71.475017z m112.443942-362.921646l9.706484-9.706483a17.206948 17.206948 0 0 0 9.706484 5.546562c3.466601 0.630291 4.853242 2.079961 5.546562 5.546562 0.69332 3.466601 4.159922 4.853242 7.626523 5.546562 3.52963 0.630291 5.546562 4.853242 8.382872 4.853242 2.773281 0 11.786445 12.479765 15.253046 16.639686 2.079961 2.079961 4.853242 5.546562 6.933203 2.773281s2.079961-2.079961 3.466601-2.773281c10.399804 23.635918 16.639686 49.982088 17.333007 75.634939h-40.212576a120.38561 120.38561 0 0 0-3.52963-27.039491 19.160851 19.160851 0 0 0 2.14299-9.013163c0-2.773281-2.773281-4.159922-4.916271-2.079961-1.323611-5.546562-3.466601-10.399804-5.546563-15.253046-0.630291-2.773281-1.386641-6.302912-2.07996-9.013164 0-0.756349-1.386641-1.44967-2.773282-2.83631-1.386641-2.773281-2.079961-4.853242-3.466601-6.933202 2.079961-1.386641 2.773281-4.853242 0-4.159922-4.159922 0.69332-1.386641-2.079961-2.773281-3.466601s-1.386641 0-2.079961 0.69332a193.436355 193.436355 0 0 0-18.026327-23.572889v-0.69332c-1.386641 0-1.386641-0.69332-0.69332-0.693321z m24.266209 235.287688c-1.386641-2.773281-2.079961-6.302912-3.466601-9.013164-0.630291-2.773281-6.239882-2.773281-6.239882-1.38664 0 2.773281 0 5.546562-0.630291 8.319843v0.630291l-14.622755-14.496697a161.354535 161.354535 0 0 0 43.048886-104.124098h40.212575a198.415655 198.415655 0 0 1-54.83533 131.856909l-2.079961-2.079961c0.69332-2.773281 0-6.302912-1.386641-9.706483z m-33.279372 27.73281c2.079961-3.466601 6.239882-9.706484 8.319843-13.236114 2.079961-3.403572-5.546562-8.256814-9.706484-9.643455-4.159922-1.386641-4.159922-3.466601-4.159922-6.933202a44.561584 44.561584 0 0 0 6.239883-5.546562l28.426131 28.426131a199.424121 199.424121 0 0 1-30.506092 23.572889c-0.69332-1.386641 4.159922-6.239882 5.546562-8.319844 1.386641-2.079961-5.546562-4.853242-4.159921-8.319843z m17.333006-165.892631c-3.466601-4.853242 1.386641-5.546562 6.302912-7.563494 2.710252-1.44967 6.176853 0.630291 6.176853-0.756349s1.386641-4.159922 2.773281-4.853242c1.386641-0.630291 3.466601-2.079961 4.159922-3.466602 0 1.386641 0.69332 2.773281 0.69332 4.159922a15.820308 15.820308 0 0 0-2.079961 7.626523c0 2.079961 0 4.853242 2.079961 0 0-0.630291 0.69332-0.630291 0.69332-1.386641 1.386641 4.853242 1.386641 9.013163 1.386641 13.236115h-29.812772v-0.693321c2.079961-3.52963 9.706484-2.83631 7.626523-6.302911z m5.546562-56.915291s0 0.69332-0.630291 0.69332c-0.756349 0.69332-4.222951-4.853242-4.22295-0.630291 0 4.159922 1.386641 5.546562 4.159921 6.239882 2.773281 0.630291 1.386641 2.079961 3.466601 2.773281 0.69332 0 2.079961 0.630291 2.773282 1.386641 3.466601 7.563494 5.546562 15.253046 7.626522 23.572889a9.580426 9.580426 0 0 0-2.773281 2.079961c-1.386641 1.386641-0.630291 4.159922-2.07996 6.302911-2.079961 3.403572-2.773281 5.483533-8.319844 4.096893-3.466601-1.386641-0.630291-5.546562 0-9.013164 0.69332-3.466601 2.079961-2.773281 2.079961-4.853241s-6.933203-9.706484-10.399804-6.933203c-3.466601 2.773281-2.773281 5.546562-5.546562 8.319843-1.386641 1.386641-2.773281 1.386641-4.853242 0s-2.773281-2.773281-2.079961-4.159922c0.630291-1.386641-4.853242-7.626523-6.933202-10.399804a14.496697 14.496697 0 0 0-11.156154-5.546562 108.851282 108.851282 0 0 0-13.173085-18.089356l28.48916-28.426131c9.706484 10.399804 17.333007 20.799608 23.572889 32.586053z m-47.902127 19.475996l-1.386641 2.079961c-0.630291 1.386641-4.159922-1.386641-4.853242-0.69332-0.630291 0.630291 4.853242 7.563494-0.630291 5.546562-5.609591-2.079961-2.14299-2.079961-2.14299-4.159921s-4.853242-3.466601-2.07996-4.853242 0-3.466601 2.773281-4.159922c2.773281-0.69332 2.079961-3.466601-1.386641-4.159922-3.466601-0.69332-2.773281 7.563494-4.853242 6.239883-2.079961-0.69332-4.159922-0.69332-6.239882-0.69332l9.706484-9.706484a6.302912 6.302912 0 0 0 3.466601 0.630291c1.386641 5.609591 4.853242 9.769513 7.626523 13.866405z m-11.093124 140.870073c4.159922 0.69332 9.013163 1.386641 13.236114 2.773281 2.710252 1.386641 4.790213 4.159922 6.933202 0.69332 4.159922-6.239882 6.933203-13.173085 8.319844-20.799608 1.386641-10.399804-0.69332-13.866405-2.079961-13.866405-1.44967 0-4.159922 2.773281-6.933203 2.773281-1.44967 0-1.44967 2.773281-1.44967 4.853242s-2.773281 4.159922-3.466601 2.773281c-0.630291-1.386641-2.079961-0.69332-1.38664 0.630291 0.69332 1.44967-5.546562 0.756349-8.319844-0.630291-4.159922-2.079961 4.853242-2.079961 9.013164-5.546562 3.466601-2.773281 6.933203-6.302912 10.399804-9.706484 2.14299-3.52963 2.14299-7.689552 5.609591-10.462833 3.466601-2.773281 9.013163-2.079961 9.706484-6.239882 0.630291-4.159922 1.386641-3.466601 3.466601-2.773281 2.079961 0.69332 21.492928-0.630291 21.492929-6.933203 0-2.773281-4.159922-6.239882-8.319844-6.933203-2.773281 0-3.466601-5.546562-4.853242-8.319843-1.386641-2.773281-2.773281-5.546562-4.853241-8.319843h29.119451a150.072323 150.072323 0 0 1-39.519255 95.804255l-0.693321-0.756349v-2.773282c0.630291-5.546562-3.466601-14.559726-4.853242-13.173085-1.386641 1.386641 0 1.386641-4.159921 7.626523-1.44967 2.079961-3.52963 5.546562-6.302912 5.546562-2.773281 0-2.773281-1.386641-6.933202-0.630291a29.875801 29.875801 0 0 1-11.093125 0 77.084608 77.084608 0 0 1-18.719647-9.076192c0.630291-0.630291 2.773281 0.69332 2.773281-1.386641s11.093124 4.159922 13.866406 4.853242zM813.075587 565.245106l-28.48916-28.48916a212.597206 212.597206 0 0 0 58.301931-140.176753h40.968925A249.028034 249.028034 0 0 1 813.075587 565.245106z m70.781696-180.452357h-40.968925a206.672469 206.672469 0 0 0-20.799608-86.097772l0.693321-0.630291c2.773281-2.83631-13.236114-23.635918-15.946366-25.715879-2.773281-2.079961-5.546562-5.546562-9.013164-9.013163a123.852211 123.852211 0 0 1-15.316075-18.089357l29.875801-29.812771a248.271685 248.271685 0 0 1 71.475016 169.359233z m-247.074131-247.074132a253.377043 253.377043 0 0 1 169.359232 70.088376l-27.73281 27.732811c-1.44967-0.69332-2.83631-1.386641-2.14299-2.773281 1.386641-2.079961-2.079961-2.079961-2.773281-7.626523a22.06019 22.06019 0 0 0-10.399804-13.236114c-3.466601-2.016932-5.546562-4.790213-9.013164-6.176854-3.466601-1.386641-10.399804-5.609591-13.866405-4.22295a24.644384 24.644384 0 0 1-6.933203 1.449669 211.58874 211.58874 0 0 0-95.804255-25.022559l-0.69332-40.275604z m0 51.99902c29.812772 0.69332 58.301932 8.319843 85.341422 21.555957a28.993393 28.993393 0 0 0 5.546562 12.479765c1.386641 3.466601 3.52963 6.239882 5.609591 9.706484 2.079961 2.079961 0.630291 6.302912 1.386641 9.706484 0 1.386641 1.386641 2.773281 2.07996 4.159921v5.546562c0 0.69332 2.773281 0.69332 4.853242-0.630291 2.079961-1.44967 3.466601-4.222951 6.239883-3.52963 2.773281 0.69332 6.239882 6.302912 8.319843 9.706484l-13.236114 13.236114c-1.323611-2.773281-2.710252-6.302912-2.016932-6.302912 0.630291 0 2.079961 0.756349 2.773281 0.75635 2.773281 0-2.079961-2.079961-2.079961-2.773281-2.079961-2.14299-2.079961-4.916271-4.853242-6.933203-2.773281-2.14299-6.933203-0.756349-8.382872-3.529631a38.006557 38.006557 0 0 0-11.093124-12.479764c-0.630291 0 5.546562 7.626523 3.466601 9.013163-2.079961 1.386641-9.706484-4.853242-10.399804-3.466601-0.630291 1.386641 8.319843 4.853242 11.093124 7.626523 1.386641 1.386641 4.159922 5.546562 6.933203 9.076192a161.480593 161.480593 0 0 0-91.581304-32.649081V189.717637z m0 51.368729a150.009294 150.009294 0 0 1 95.804255 39.582284l-28.48916 28.426131a110.237923 110.237923 0 0 0-67.315095-27.73281v-40.275605z m0 52.062049c22.186249 1.386641 43.048886 9.706484 58.995251 24.266209l-1.38664 1.386641-1.386641-0.630291c-3.466601-1.44967-10.399804 5.546562-9.013163 6.239882 1.386641 0.630291 4.159922-2.83631 5.546562-2.14299h0.630291l-11.723415 12.542794c-3.466601 1.386641-6.933203 4.159922-6.933203 6.239883v0.630291l-4.222951 4.222951-2.07996-2.079961a35.233275 35.233275 0 0 0-11.093125-6.302912c2.079961-1.323611 2.773281-3.403572 3.466602-6.176853 0-4.159922-1.386641-2.773281-3.466602-0.69332s-4.159922 2.773281-5.546562 4.853242a31.451529 31.451529 0 0 0-11.093124-2.079961V293.085386h-0.69332z m-4.853242 51.368729c0.630291 1.386641 0 2.773281-0.693321 3.466601-1.386641 1.386641-5.546562-3.466601-6.302911 0.630292-1.323611 4.222951 2.83631 2.14299 2.83631 2.83631a12.85794 12.85794 0 0 0 8.319843 4.853242c2.773281 0 6.933203 0 6.933203 2.773281 0 1.386641 3.466601 1.386641 4.159922 2.773281 0 2.079961 2.079961 5.546562 3.466601 4.853242 1.386641-0.630291 3.466601 0.69332 4.159921 2.07996 0.69332 1.386641 0 2.079961-0.630291 3.466602-2.14299 2.079961 2.016932 1.386641 2.710252 5.546562 0.69332 4.159922-3.466601 1.386641-4.159921 4.159922-1.386641 2.14299-2.773281 3.52963-4.159922 5.609591-0.630291 0.630291 0.69332 2.079961 1.386641 1.38664 0.69332-0.69332 2.079961-2.773281 4.159921-2.773281s4.159922 7.563494 6.302912 8.319843c2.016932 0.630291 1.323611 3.466601 2.016931 4.159922 0.69332 0.630291-3.466601 0-2.773281 1.386641 0.69332 1.386641 4.916271 2.079961 4.916271 4.159921-0.69332 2.079961-2.14299 4.159922-4.916271 4.159922-2.079961 0-5.546562-4.853242-5.546562-3.466602s1.386641 5.546562 3.466602 5.546563 6.933203-2.079961 4.853241 0.69332-1.386641 6.933203-2.773281 6.933203-2.079961 0-0.630291 2.07996c0.630291 2.079961 0 4.159922-1.449669 6.302912-1.386641 1.323611-4.853242 0-4.853242-0.756349 0-0.630291 4.159922-0.630291 4.159921-2.773282 0-2.079961-2.079961-2.773281-6.239882-1.38664-2.079961 0.69332-2.773281-0.630291-4.159922-0.630291-1.386641 0-5.546562 4.790213-5.546562 5.483533v3.466601a11.723415 11.723415 0 0 1-2.079961 6.933203c-2.773281 0.69332-4.853242 0.69332-7.626523 0.69332a49.16271 49.16271 0 0 1-30.569121-11.786444 13.047027 13.047027 0 0 1 5.546563-1.386641c2.14299 0.69332 2.83631-0.630291 4.22295-1.386641 1.386641-0.630291 4.853242 1.386641 6.933203 0s6.933203-10.399804 6.239882-12.479764c-0.69332-2.079961 4.853242-5.546562 4.159922-6.302912-0.69332-0.630291-1.386641 0.756349-1.38664 0 0-0.630291 1.386641-0.630291 0-3.403572s-3.466601-1.386641-4.853242-1.386641c-2.079961-1.386641-5.546562-2.079961-6.302912-1.38664-0.630291 0.630291-2.710252-1.386641-3.403572-0.69332-0.69332 0-2.079961 0.630291-2.079961 2.07996-0.69332 1.386641 0.630291 2.773281 0.630291 4.159922-0.630291 2.773281-4.853242 4.853242-4.853242 6.933203s-2.079961 0.69332-2.773281 1.38664c-0.630291 0.69332 0 2.079961-1.38664 2.079961s-3.466601 3.466601-4.853242 6.302911c-2.079961-2.83631-4.159922-6.302912-6.239883-9.076192 1.386641-0.69332 2.773281-1.386641 3.466602-0.69332 2.079961 1.386641 10.399804-13.236114 9.013163-17.333007-1.386641-4.159922-3.466601-1.386641-5.546562-0.69332-2.079961 0.630291-2.079961-1.386641-1.38664-2.079961 0.69332-0.69332 9.706484-0.69332 4.853241-3.466601-2.079961-1.386641-7.563494-1.386641-6.933202-3.466602 0.69332-2.14299 3.466601 0 4.159921 0 3.466601 1.386641 5.546562-5.609591 7.626523-5.609591 3.52963 0 2.14299-6.933203-1.38664-4.853242-3.466601 2.079961-4.853242 1.386641-6.239883 3.466601-1.386641 2.079961-4.853242 4.853242-4.853241 2.079961 0-1.386641 7.626523-5.546562 9.013163-7.563494a15.126988 15.126988 0 0 0 3.466601-5.609591c0.69332-2.079961 10.462833-3.466601 12.542794-4.853242 1.386641-1.386641 2.773281-3.466601 2.773281-5.546562 0-2.079961-2.773281-1.386641-3.466601-2.773281-0.69332-1.386641 3.466601 0 3.466601-2.079961s-3.466601 0-4.853242-1.38664c0-0.69332 0-0.69332 0.630292-1.386641a44.624614 44.624614 0 0 1 15.316075-2.773281h1.38664z m-6.302912-206.861556v40.338634a212.660235 212.660235 0 0 0-140.176752 58.238902l-28.426131-28.426131a250.225588 250.225588 0 0 1 168.665912-70.151405zM448.010951 216.189865l28.426131 28.426131a212.660235 212.660235 0 0 0-58.301931 140.239782h-40.212576a256.906674 256.906674 0 0 1 70.088376-168.665913z" fill="#FFFFFF" p-id="1336"></path></svg>